inDegrees=no
num_controls=7
num_derivatives=13
num_iterations=164
num_multipliers=7
num_parameters=0
num_slacks=7
num_states=26
objective=0.509722
objective_accelerations=0.040310
objective_balance=0.003520
objective_effort=0.029471
objective_height=0.323701
objective_ligament=0.112721
solver_duration=2458.931848
status=Solve_Succeeded
success=true
DataType=double
version=3
OpenSimVersion=4.5
endheader
time	/jointset/ground_pelvis/pelvis_tilt/value	/jointset/ground_pelvis/pelvis_tx/value	/jointset/ground_pelvis/pelvis_ty/value	/jointset/hip_l/hip_flexion_l/value	/jointset/hip_l/hip_adduction_l/value	/jointset/hip_l/hip_rotation_l/value	/jointset/back/lumbar_extension/value	/jointset/patellofemoral_l/patellar_flexion_l/value	/jointset/knee_l/knee_flexion_l/value	/jointset/knee_l/knee_adduction_l/value	/jointset/knee_l/knee_rotation_l/value	/jointset/ankle_l/ankle_angle_l/value	/jointset/subtalar_l/subtalar_angle_l/value	/jointset/ground_pelvis/pelvis_tilt/speed	/jointset/ground_pelvis/pelvis_tx/speed	/jointset/ground_pelvis/pelvis_ty/speed	/jointset/hip_l/hip_flexion_l/speed	/jointset/hip_l/hip_adduction_l/speed	/jointset/hip_l/hip_rotation_l/speed	/jointset/back/lumbar_extension/speed	/jointset/patellofemoral_l/patellar_flexion_l/speed	/jointset/knee_l/knee_flexion_l/speed	/jointset/knee_l/knee_adduction_l/speed	/jointset/knee_l/knee_rotation_l/speed	/jointset/ankle_l/ankle_angle_l/speed	/jointset/subtalar_l/subtalar_angle_l/speed	/forceset/tau_hip_flexion_l	/forceset/tau_hip_adduction_l	/forceset/tau_hip_rotation_l	/forceset/tau_knee_flexion_l	/forceset/tau_ankle_angle_l	/forceset/tau_subtalar_angle_l	/forceset/tau_lumbar_extension	lambda_cid13_p0	lambda_cid13_p1	lambda_cid13_p2	lambda_cid13_p3	lambda_cid13_p4	lambda_cid13_p5	lambda_cid14_p0	/jointset/ground_pelvis/pelvis_tilt/accel	/jointset/ground_pelvis/pelvis_tx/accel	/jointset/ground_pelvis/pelvis_ty/accel	/jointset/hip_l/hip_flexion_l/accel	/jointset/hip_l/hip_adduction_l/accel	/jointset/hip_l/hip_rotation_l/accel	/jointset/back/lumbar_extension/accel	/jointset/patellofemoral_l/patellar_flexion_l/accel	/jointset/knee_l/knee_flexion_l/accel	/jointset/knee_l/knee_adduction_l/accel	/jointset/knee_l/knee_rotation_l/accel	/jointset/ankle_l/ankle_angle_l/accel	/jointset/subtalar_l/subtalar_angle_l/accel	gamma_cid13_p0	gamma_cid13_p1	gamma_cid13_p2	gamma_cid13_p3	gamma_cid13_p4	gamma_cid13_p5	gamma_cid14_p0
1.5	-0.007701326991458463	-0.02270661245073118	0.873540836562905	0.6121662780273324	-0.2933387429208639	-0.200470087988947	-0.7804918038711994	0.620877575373571	0.6208775753735845	-0.06649855114330772	-0.1716728277783938	0.07274418242503548	0.0278924298954259	0.4293516913896302	0.2334082414076386	0.3397956205555116	-1.844729366999299	0.1925595848726918	-0.6055085606779634	0.8516946612547814	-1.684649385212488	-1.684649385212489	0.06322454230001481	-0.01369114416317795	-0.3092310525208209	0.1044623784901103	-0.2002435871874343	0.05290043748630175	-0.007949116096147575	-0.1787851623851511	0.09937064091783396	0.01632581205281254	0.2756023172111757	-11.15334761935469	-6.556701873820571	2.212160266026007	-8.475230340137443	-666.099649233402	-51.28001206275383	-20.4279528162232	0.1666720432821827	0.6319696576046094	-0.5677420891116395	-0.2908444123657343	0.4744843102931522	0.2293218870942743	1.613170378567882	0.09173551478180383	0.09173551478178922	-0.08212993119510981	-0.01949432073743218	0.4804588341564442	0.632498808781349	1.678474255729394e-07	6.339362670142261e-07	-7.757021113163446e-07	3.976570621378598e-08	1.654160664064296e-07	2.432049331807779e-07	1.79222729690568e-07
1.51	-0.003400011584692063	-0.02034114864599274	0.8769099181875152	0.5937060345909075	-0.2913906609060121	-0.2065128454022754	-0.7718953886490222	0.6040372546349783	0.6040372546350253	-0.06587269443897541	-0.171811316619641	0.06967598524240586	0.02896732193688298	0.4308470345245458	0.2396597784326402	0.333971181187837	-1.847108619451811	0.1970087133751022	-0.6029602571009668	0.8674804175914703	-1.683222068773423	-1.683222068773414	0.06188437287274246	-0.01399667672335284	-0.3043651668063776	0.1104770609069311	-0.1923094337837251	0.05129963971382727	-0.007937308210200231	-0.1774810509936173	0.1012831190132859	0.01530021181387017	0.2685282690895661	-10.40256844840757	-6.289026921458484	2.222356370621199	-8.54389604163263	-662.9155299950035	-51.44887665380509	-20.89025489854566	0.1313304902198742	0.6180424193677317	-0.5971891041625107	-0.1798402316931266	0.4229221423197786	0.2801562100081714	1.545083422792428	0.1970983282163976	0.1970983282178575	-0.169254131067344	-0.03474900271969474	0.4961587027919288	0.5800971548885081	1.66814112104584e-07	6.333022241405995e-07	-7.723497726964504e-07	3.946021103631446e-08	1.692111568662275e-07	2.517816343957072e-07	1.778884134202649e-07
1.52	0.000914330261746371	-0.01791391013212029	0.8802192765697348	0.5752283237159572	-0.289399528601715	-0.2125276054564322	-0.7631443548311638	0.5872169807847236	0.5872169807848087	-0.06526209816542979	-0.1719525940423039	0.06665774796946133	0.03010118964185949	0.4319569793244094	0.2457631832344437	0.3278509720774563	-1.848222854704287	0.2011696427617036	-0.5999090888437383	0.88261838039108	-1.680640007544457	-1.680640007544439	0.06017245614250843	-0.01424886044601329	-0.2992390705837887	0.116257511193994	-0.1843752803800131	0.0496988419413555	-0.007925500324242362	-0.1761769396020845	0.1031955971087379	0.01427461157493157	0.2614542209679584	-9.654819527152732	-6.021360080330813	2.233169768277302	-8.647033265345087	-659.7974042416351	-51.65952735767221	-21.32247065756856	0.08959237627173507	0.6023432129649482	-0.6268960376528333	-0.03784097235842007	0.4168444871313411	0.3298948231406665	1.483611671151984	0.3226844727617515	0.3226844727617585	-0.1564793917874656	-0.008824553234535411	0.5325009357855613	0.5856523828297494	1.648659778756464e-07	6.271414335807139e-07	-7.643633424525704e-07	3.865532483625269e-08	1.723346368971099e-07	2.580576774349074e-07	1.753709820022153e-07
1.53	0.005237824950289772	-0.01542644815736434	0.8834660056687965	0.5567458059676447	-0.2873682450074549	-0.2185094162236755	-0.7542452870243395	0.5704282557436614	0.5704282557435891	-0.06467041235480524	-0.1720960619173577	0.06369199828776784	0.03129166405173105	0.4326755794904328	0.2516971783250248	0.3214503207085961	-1.848066625912549	0.2050343261496739	-0.596376773136565	0.8970758134158445	-1.676914046967188	-1.676914046967241	0.05810487645617865	-0.01443407747566458	-0.2938749956784925	0.1217922059932898	-0.1763589167249204	0.04797209891223767	-0.007913243147821162	-0.17497082261818	0.1050428389798299	0.01315241177753493	0.254302085037129	-8.94572630862654	-5.703397465762817	2.23416579773258	-8.634857873141749	-656.8239050718762	-51.82100480425643	-21.72189254496844	0.05305446408346906	0.5841299692950779	-0.653293533520577	0.07448466850437956	0.3633757709098411	0.3765086162265266	1.408903984395168	0.4261609902464367	0.4261609902357144	-0.2408068770229388	-0.02192764881647068	0.5437633393242705	0.5305936566585356	1.619458465885903e-07	6.151084736041783e-07	-7.514531898582057e-07	3.731983567468878e-08	1.747445308472697e-07	2.618892711623956e-07	1.715964907396849e-07
